<svg width="16" height="16" viewBox="0 0 16 16" fill="none" xmlns="http://www.w3.org/2000/svg">
<path fill-rule="evenodd" clip-rule="evenodd" d="M4.79961 1.60001C4.35778 1.60001 3.99961 1.95818 3.99961 2.40001V3.20001H3.19961C2.31595 3.20001 1.59961 3.91635 1.59961 4.80001V12.8C1.59961 13.6837 2.31595 14.4 3.19961 14.4H12.7996C13.6833 14.4 14.3996 13.6837 14.3996 12.8V4.80001C14.3996 3.91635 13.6833 3.20001 12.7996 3.20001H11.9996V2.40001C11.9996 1.95818 11.6414 1.60001 11.1996 1.60001C10.7578 1.60001 10.3996 1.95818 10.3996 2.40001V3.20001H5.59961V2.40001C5.59961 1.95818 5.24144 1.60001 4.79961 1.60001ZM4.79961 5.60001C4.35778 5.60001 3.99961 5.95818 3.99961 6.40001C3.99961 6.84183 4.35778 7.20001 4.79961 7.20001H11.1996C11.6414 7.20001 11.9996 6.84183 11.9996 6.40001C11.9996 5.95818 11.6414 5.60001 11.1996 5.60001H4.79961Z" fill="#ADB4BD"/>
</svg>
