<svg width="16" height="16" viewBox="0 0 16 16" fill="none" xmlns="http://www.w3.org/2000/svg">
<g clip-path="url(#clip0_367_9476)">
<path d="M7.5955 14.399C6.52408 14.399 5.45323 14.399 4.38238 14.399C3.27216 14.3961 2.42495 13.5857 2.4164 12.4756C2.39985 10.5419 2.38673 8.6071 2.42039 6.67343C2.46375 4.16217 4.31848 2.06413 6.78652 1.66575C9.61739 1.20916 12.3256 3.19876 12.6885 6.06046C12.7986 6.92912 12.7421 7.81948 12.7495 8.69956C12.7495 8.88676 12.7797 9.00548 12.9777 9.08424C13.1186 9.14131 13.219 9.29028 13.3497 9.38103C13.4261 9.4341 13.5499 9.50316 13.6093 9.47463C13.7034 9.43011 13.8164 9.31482 13.8243 9.22065C13.8462 8.9087 13.8481 8.59568 13.8301 8.28349C13.8266 8.20872 13.7622 8.13339 13.716 8.0649C13.4746 7.70875 13.5231 7.26586 13.838 6.98506C13.9875 6.85081 14.1812 6.77655 14.382 6.77655C14.5828 6.77655 14.7766 6.85081 14.926 6.98506C15.2386 7.26358 15.2837 7.70419 15.0606 8.06946C14.988 8.19587 14.9453 8.33721 14.9357 8.48268C14.9152 8.75606 14.9357 9.03287 14.9226 9.30683C14.8849 10.0243 14.3384 10.5522 13.6195 10.595C13.522 10.6007 13.4199 10.6658 13.3343 10.7251C13.2344 10.7942 13.1631 10.9277 13.057 10.9608C12.7535 11.0556 12.7444 11.265 12.7467 11.5287C12.7512 12.0002 12.7763 12.4841 12.6896 12.9424C12.5184 13.8088 11.7477 14.3961 10.864 14.4001C9.77486 14.4024 8.68518 14.399 7.5955 14.399ZM7.59151 11.6708C8.18826 11.6708 8.78502 11.6708 9.38177 11.6708C9.78113 11.6708 10.0185 11.4739 10.0282 11.1486C10.0384 10.8107 9.79254 10.5904 9.38577 10.5893C8.19264 10.5862 6.99932 10.5862 5.80581 10.5893C5.40645 10.5893 5.14801 10.8176 5.15656 11.144C5.16512 11.4705 5.41158 11.6697 5.80124 11.6708C6.39343 11.6725 6.9919 11.6708 7.59151 11.6708ZM8.95161 7.99869C8.95161 8.29262 8.95161 8.58655 8.95161 8.87991C8.95161 9.10821 9.06571 9.22864 9.30418 9.22236C9.60712 9.21779 9.91064 9.21551 10.2136 9.22236C10.4686 9.22864 10.5781 9.10307 10.5787 8.86051C10.5787 8.28254 10.5787 7.70438 10.5787 7.12603C10.5787 6.89374 10.4646 6.77731 10.2273 6.77902C9.92376 6.77902 9.62082 6.77902 9.31445 6.77902C9.06685 6.77902 8.94704 6.89317 8.94761 7.14258C8.9499 7.42966 8.94875 7.71389 8.94875 7.99869H8.95161ZM4.61572 7.99869C4.61572 8.30175 4.61572 8.60482 4.61572 8.90845C4.61572 9.12191 4.72069 9.22293 4.92779 9.2235C5.25926 9.2235 5.59072 9.22636 5.92219 9.2235C6.11502 9.2235 6.22057 9.12362 6.22057 8.92386C6.22057 8.31717 6.22057 7.71047 6.22057 7.10434C6.22057 6.88803 6.10647 6.78929 5.90793 6.78587C5.58559 6.78016 5.26382 6.78187 4.94148 6.78587C4.72526 6.78587 4.60887 6.88917 4.61344 7.11861C4.618 7.41026 4.61344 7.70704 4.61344 7.99812L4.61572 7.99869ZM8.39251 8.00383C8.39251 7.7099 8.38851 7.41597 8.39251 7.1226C8.3965 6.89773 8.2921 6.78587 8.07074 6.78416C7.74897 6.78416 7.42663 6.78016 7.10429 6.78416C6.8875 6.78758 6.77796 6.8983 6.7791 7.1266C6.78252 7.71446 6.7791 8.30233 6.7791 8.88962C6.7791 9.11049 6.88407 9.22464 7.10657 9.22521C7.42891 9.22521 7.75068 9.22521 8.07302 9.22521C8.28183 9.22521 8.38965 9.12647 8.38965 8.91416C8.39003 8.61053 8.39022 8.30689 8.39022 8.00326L8.39251 8.00383Z" fill="white"/>
</g>
<defs>
<clipPath id="clip0_367_9476">
<rect width="12.8" height="12.8" fill="white" transform="translate(2.40039 1.60001)"/>
</clipPath>
</defs>
</svg>
